<?xml version="1.0" standalone="no"?>
<!DOCTYPE svg PUBLIC "-//W3C//DTD SVG 20010904//EN"
 "http://www.w3.org/TR/2001/REC-SVG-20010904/DTD/svg10.dtd">
<svg version="1.0" xmlns="http://www.w3.org/2000/svg"
 width="480.000000pt" height="480.000000pt" viewBox="0 0 480.000000 480.000000"
 preserveAspectRatio="xMidYMid meet">
<metadata>
Created by potrace 1.11, written by Peter Selinger 2001-2013
</metadata>
<g transform="translate(0.000000,480.000000) scale(0.100000,-0.100000)"
fill="#000000" stroke="none">
<path d="M2797 4020 c-15 -5 -80 -11 -145 -15 -64 -3 -131 -8 -147 -9 -36 -4
-135 -56 -184 -97 -20 -16 -39 -29 -44 -29 -15 0 -70 -45 -141 -115 -39 -38
-97 -92 -129 -119 -31 -27 -57 -54 -57 -60 0 -7 -14 -25 -31 -42 -38 -36 -129
-163 -129 -181 0 -7 -10 -31 -21 -53 -14 -27 -22 -63 -24 -108 -3 -71 -18
-140 -41 -184 -7 -14 -14 -41 -15 -60 0 -18 -5 -62 -10 -98 -7 -46 -7 -92 1
-150 21 -147 19 -157 -28 -176 -1 -1 1 -20 6 -42 8 -34 7 -40 -5 -35 -13 5
-14 -1 -9 -33 4 -21 9 -56 11 -78 6 -45 12 -56 29 -56 10 0 15 -21 18 -74 3
-59 8 -80 25 -98 11 -13 24 -33 28 -46 3 -12 11 -20 16 -17 5 4 9 1 9 -4 0 -6
5 -11 11 -11 12 0 3 37 -15 59 -6 8 -12 24 -13 35 -9 96 -8 129 3 144 6 9 15
37 19 62 4 25 13 59 20 75 19 43 24 63 30 130 3 33 10 64 15 69 6 6 10 32 10
59 0 41 3 50 20 54 15 4 18 9 10 18 -13 15 -4 59 17 94 8 12 13 32 10 42 -4
16 -1 19 16 14 16 -5 18 -4 8 3 -7 6 -10 15 -6 22 4 7 2 16 -6 20 -9 6 -10 12
-2 22 6 7 11 26 11 41 0 16 4 33 10 39 7 7 4 20 -8 42 -18 31 -17 102 1 90 5
-2 11 8 15 23 4 15 15 36 25 46 11 10 19 22 19 26 0 15 59 73 69 67 4 -3 11 8
15 24 3 18 12 30 21 30 8 0 15 5 15 10 0 6 16 18 35 27 19 9 32 20 29 25 -3 4
2 5 10 2 9 -3 23 1 31 10 16 16 33 20 69 16 10 -1 22 3 26 10 8 13 139 20 146
8 3 -4 21 -1 41 7 20 8 38 13 41 10 3 -3 11 0 19 6 10 9 17 8 28 -1 12 -10 18
-10 31 0 13 11 16 10 21 -8 3 -12 11 -22 19 -22 8 0 11 6 7 16 -4 12 -2 15 8
12 8 -3 14 -11 14 -18 0 -7 6 -15 13 -17 6 -3 12 1 12 7 0 10 4 9 15 0 12 -10
27 -8 81 10 62 21 66 21 85 4 10 -9 19 -25 19 -36 0 -10 7 -18 15 -18 8 0 15
-4 15 -10 0 -18 67 -11 91 10 19 15 21 21 11 28 -10 7 -6 11 15 15 15 3 32 2
38 -1 5 -3 21 -6 35 -7 23 -1 69 -25 96 -50 49 -44 75 -65 83 -65 5 0 18 -11
29 -25 11 -14 25 -25 30 -25 6 0 15 -6 19 -12 4 -7 23 -21 41 -31 24 -14 32
-15 32 -5 0 9 3 9 10 -2 9 -13 12 -13 23 0 8 10 26 14 52 12 56 -4 71 -10 57
-24 -7 -7 -3 -17 15 -34 14 -13 29 -24 33 -24 4 0 11 -11 14 -25 4 -14 11 -25
16 -25 5 0 12 -20 16 -45 3 -26 10 -42 16 -39 6 4 8 -2 3 -15 -3 -11 -2 -21 3
-21 15 0 25 -52 12 -60 -8 -5 -5 -17 7 -39 12 -21 15 -34 7 -39 -5 -4 -10 -16
-11 -27 0 -11 -3 -27 -7 -36 -4 -10 -1 -23 8 -32 18 -18 21 -37 6 -37 -7 0 -7
-6 -2 -17 17 -34 87 -381 97 -478 1 -5 7 -26 13 -46 11 -30 10 -49 -3 -110 -9
-41 -18 -83 -20 -94 -2 -11 -6 -32 -10 -47 -4 -17 -3 -28 3 -28 9 0 24 24 26
43 1 4 6 11 13 15 6 4 11 14 11 22 -3 55 2 70 26 70 27 0 42 15 26 25 -5 3
-10 1 -10 -6 0 -7 -3 -10 -6 -7 -3 3 1 16 8 28 8 14 9 24 3 26 -14 5 -11 122
3 157 7 16 12 33 12 38 0 6 11 2 25 -8 18 -14 24 -27 25 -55 0 -21 5 -38 11
-38 7 0 9 10 7 25 -3 13 -2 23 1 20 4 -2 7 12 7 31 0 19 -5 34 -10 34 -7 0 -7
3 0 8 6 4 14 24 18 45 6 30 4 37 -9 37 -8 0 -24 -9 -35 -20 -18 -18 -20 -18
-20 -2 1 9 7 34 14 54 11 32 11 39 -1 49 -10 9 -12 30 -9 86 9 124 -14 302
-55 428 -10 33 -19 70 -19 83 0 52 -56 197 -103 265 -10 15 -23 43 -28 61 -5
18 -19 42 -32 54 -70 66 -100 100 -112 130 -8 17 -18 32 -23 32 -6 0 -39 26
-75 58 -164 146 -198 173 -248 200 -30 16 -70 33 -89 37 -19 4 -40 14 -48 21
-7 8 -24 14 -37 14 -13 0 -47 9 -75 20 -53 21 -169 26 -223 10z"/>
<path d="M3721 2984 c0 -11 3 -14 6 -6 3 7 2 16 -1 19 -3 4 -6 -2 -5 -13z"/>
<path d="M2150 2693 c-8 -3 -27 -14 -42 -24 -14 -11 -31 -19 -37 -19 -21 0
-71 -44 -71 -62 0 -22 13 -23 35 -2 9 10 22 13 33 9 20 -9 39 -12 117 -20 32
-4 78 -15 102 -26 23 -10 47 -19 52 -19 10 0 15 -20 13 -41 -1 -4 9 -10 22
-13 13 -3 26 -13 30 -21 3 -10 2 -13 -5 -10 -5 4 -16 2 -23 -4 -16 -14 -126
-27 -126 -15 0 5 12 18 28 30 15 12 23 26 19 30 -4 5 -12 3 -16 -4 -4 -7 -19
-12 -32 -11 -36 5 -158 -12 -164 -22 -3 -4 -12 -6 -19 -3 -16 6 -46 -32 -46
-58 0 -9 8 -21 18 -27 14 -8 15 -12 5 -22 -7 -7 -13 -19 -13 -26 0 -17 37 -17
43 0 3 7 15 0 32 -21 28 -34 33 -34 113 -10 33 10 33 10 13 27 -12 10 -18 21
-14 25 4 3 20 -7 37 -23 44 -41 84 -47 126 -19 21 14 39 37 45 56 6 21 14 31
23 27 7 -3 17 -5 22 -5 5 0 12 -9 15 -21 5 -15 10 -18 18 -10 16 16 47 14 47
-3 0 -21 15 -28 45 -20 31 8 32 20 3 44 -13 10 -20 21 -17 25 10 9 59 -17 59
-32 0 -7 5 -13 10 -13 6 0 10 -4 10 -10 0 -5 -7 -10 -15 -10 -9 0 -12 -6 -9
-15 4 -8 1 -15 -5 -15 -17 0 -13 -36 6 -51 14 -12 16 -12 8 0 -6 11 -2 13 21
7 19 -4 24 -3 15 3 -16 10 -7 31 14 31 9 0 12 9 10 30 -3 21 0 30 10 30 8 0
15 5 15 10 0 6 -4 10 -9 10 -5 0 -9 26 -8 58 2 40 -3 61 -14 72 -8 8 -18 23
-22 33 -3 9 -14 17 -24 17 -15 0 -16 2 -3 10 13 8 12 10 -2 10 -11 0 -18 8
-18 18 0 24 -77 82 -110 82 -6 0 -18 7 -26 15 -11 11 -38 15 -98 15 -46 0
-116 2 -157 5 -41 3 -81 2 -89 -2z"/>
<path d="M3428 2689 c-2 -4 -55 -11 -118 -14 -83 -5 -120 -11 -133 -22 -9 -9
-20 -13 -23 -10 -18 18 -174 -111 -174 -143 0 -9 -6 -22 -12 -28 -10 -10 -10
-15 1 -21 9 -6 10 -14 4 -26 -13 -22 5 -117 24 -128 7 -4 13 -14 13 -22 0 -18
29 -47 40 -40 5 3 11 -4 15 -15 4 -11 11 -18 16 -15 14 9 11 55 -5 61 -8 3
-16 14 -19 25 -4 15 0 19 20 19 16 0 27 7 30 20 7 28 35 26 31 -2 -4 -28 25
-32 30 -5 2 9 -2 17 -8 17 -10 0 -9 4 0 15 14 17 50 20 50 4 0 -24 42 -69 65
-69 13 0 27 -5 31 -11 10 -17 57 0 87 32 15 17 27 35 27 40 0 6 7 6 19 -1 25
-13 17 -46 -12 -55 -22 -6 -22 -6 -2 -14 11 -5 25 -4 32 1 7 5 16 7 21 4 6 -3
12 2 14 12 5 19 45 27 63 12 11 -9 52 -6 62 3 2 3 -4 13 -14 23 -17 17 -17 17
4 12 20 -5 33 7 33 32 0 5 -28 27 -62 51 -61 40 -66 42 -152 45 -82 3 -88 2
-67 -12 30 -21 18 -34 -27 -27 -43 7 -60 25 -32 35 21 8 28 28 10 28 -5 0 -10
5 -10 10 0 6 9 10 20 10 11 0 20 4 20 9 0 15 170 54 242 55 62 1 99 13 71 23
-7 3 -13 10 -13 17 0 12 -27 26 -110 56 -41 15 -98 20 -102 9z"/>
<path d="M3200 2256 c0 -5 66 -36 76 -36 15 0 0 20 -18 25 -53 15 -58 16 -58
11z"/>
<path d="M3290 2219 c0 -5 5 -7 10 -4 6 3 10 8 10 11 0 2 -4 4 -10 4 -5 0 -10
-5 -10 -11z"/>
<path d="M1700 2050 c0 -21 29 -80 39 -80 16 0 13 37 -5 65 -17 26 -34 33 -34
15z"/>
<path d="M2645 1967 c-10 -8 -15 -19 -11 -25 4 -7 3 -12 -3 -12 -9 0 -51 -78
-51 -95 0 -5 7 1 16 13 9 14 22 21 31 18 9 -4 11 -2 7 6 -5 8 -2 9 9 5 21 -8
32 10 17 27 -8 11 -5 19 15 35 41 31 12 58 -30 28z"/>
<path d="M1785 1940 c-19 -21 -13 -40 14 -40 13 0 19 8 19 25 0 34 -11 39 -33
15z"/>
<path d="M2683 1909 c-1 -10 2 -19 8 -19 11 0 12 27 1 34 -4 2 -9 -4 -9 -15z"/>
<path d="M1817 1860 c-3 -11 -1 -20 5 -20 13 0 -1 -43 -18 -53 -26 -15 -14
-26 26 -24 22 1 40 4 40 7 0 3 -6 27 -13 54 -14 53 -31 69 -40 36z"/>
<path d="M3791 1864 c0 -11 3 -14 6 -6 3 7 2 16 -1 19 -3 4 -6 -2 -5 -13z"/>
<path d="M1857 1730 c3 -11 7 -20 9 -20 2 0 4 9 4 20 0 11 -4 20 -9 20 -5 0
-7 -9 -4 -20z"/>
<path d="M2597 1705 c-15 -8 -34 -12 -42 -8 -8 3 -15 0 -15 -7 0 -6 4 -9 9 -5
5 3 13 0 16 -6 4 -6 -2 -13 -14 -16 -53 -14 -5 -71 66 -80 46 -5 53 -9 65 -37
7 -17 12 -35 10 -39 -1 -5 6 -7 15 -6 10 1 30 -3 44 -9 30 -12 119 -11 119 1
0 5 4 6 9 3 11 -7 74 14 83 28 4 6 14 4 27 -9 12 -10 24 -15 29 -11 4 4 -2 14
-12 22 -15 10 -16 16 -8 27 7 8 9 17 6 20 -3 3 19 3 50 0 68 -7 85 4 83 56 -1
31 -7 41 -30 55 -38 21 -73 20 -104 -3 -29 -23 -112 -39 -122 -23 -4 7 -19 6
-45 -3 -36 -13 -41 -12 -56 6 -10 10 -24 19 -33 19 -8 0 -17 9 -20 20 -4 17
-14 20 -54 20 -26 0 -61 -7 -76 -15z"/>
<path d="M3750 1709 c0 -9 27 -19 51 -19 33 0 21 18 -16 22 -19 2 -35 1 -35
-3z"/>
<path d="M1870 1643 c5 -20 7 -41 4 -45 -3 -4 0 -8 5 -8 6 0 11 20 11 45 0 32
-4 45 -14 45 -11 0 -12 -8 -6 -37z"/>
<path d="M1890 1555 c0 -8 7 -15 15 -15 9 0 12 6 9 15 -4 8 -10 15 -15 15 -5
0 -9 -7 -9 -15z"/>
<path d="M1890 1514 c0 -17 34 -151 40 -159 4 -5 10 -38 12 -71 2 -37 12 -73
23 -90 10 -16 19 -40 21 -54 22 -250 24 -341 7 -347 -7 -3 -13 -11 -13 -18 0
-17 -34 -28 -60 -20 -27 8 -70 -16 -121 -70 -24 -24 -50 -45 -56 -45 -7 0 -13
-4 -13 -8 0 -9 -64 -42 -83 -42 -7 -1 -25 -11 -41 -25 -27 -22 -30 -29 -32
-97 -1 -40 -3 -76 -3 -80 -1 -4 -18 -16 -38 -27 -21 -10 -49 -31 -63 -46 -14
-15 -61 -55 -105 -88 -44 -33 -103 -82 -132 -109 -28 -26 -59 -48 -68 -48 -8
0 -23 -4 -33 -9 -9 -5 -38 -17 -64 -26 -26 -9 -50 -21 -53 -26 -4 -5 231 -9
596 -9 l602 0 -18 20 c-11 12 -19 36 -19 56 0 27 -3 33 -17 29 -20 -7 -33 43
-17 63 8 9 8 16 0 24 -16 16 -15 88 1 89 6 1 19 1 29 0 9 -1 19 3 23 9 4 6 -4
10 -19 10 -27 0 -41 25 -30 54 7 19 -8 21 -36 4 -20 -13 -43 -3 -24 10 14 9
15 79 2 115 -8 19 -7 31 1 41 10 11 8 16 -8 21 -22 7 -28 39 -10 51 8 4 9 -1
4 -17 -7 -21 -6 -22 9 -7 9 9 16 25 16 35 1 22 23 53 39 53 13 0 15 -17 1 -25
-16 -10 1 -36 21 -30 23 8 75 -35 57 -47 -9 -5 -6 -8 9 -8 15 0 21 -5 17 -14
-3 -8 3 -16 16 -19 11 -3 27 -21 35 -41 8 -19 24 -40 35 -46 12 -6 25 -22 30
-36 5 -13 16 -24 23 -24 10 0 13 -8 10 -24 -4 -20 0 -25 27 -31 20 -4 34 -15
37 -26 3 -10 10 -19 15 -19 5 0 16 -7 24 -15 8 -8 21 -12 28 -9 8 3 16 -4 19
-16 3 -11 9 -20 14 -19 22 4 43 -2 58 -17 9 -9 25 -14 35 -11 11 3 20 1 20 -4
0 -5 12 -9 26 -9 16 0 23 -4 18 -12 -4 -7 -3 -8 5 -4 6 4 9 12 6 17 -4 5 14 9
40 9 32 0 47 5 52 16 5 13 9 12 29 -7 13 -12 27 -19 31 -16 3 4 1 7 -6 7 -7 0
-9 5 -6 10 4 7 13 6 26 -1 14 -7 24 -7 33 0 9 7 16 7 24 -1 9 -9 15 -7 26 8
13 17 15 18 21 2 4 -9 4 -22 0 -28 -3 -5 -1 -10 4 -10 6 0 11 7 11 16 0 25 35
12 38 -14 5 -31 26 -22 32 12 5 28 5 28 23 8 18 -20 19 -20 38 -1 12 12 19 33
19 59 0 47 18 53 27 10 5 -28 7 -29 19 -13 8 11 9 22 3 27 -5 6 -2 17 8 28 9
10 12 18 8 18 -5 0 0 6 10 14 15 11 17 17 7 28 -14 17 -6 29 14 21 9 -3 15 7
20 36 7 44 17 51 33 23 9 -16 10 -16 16 1 4 9 2 24 -5 32 -10 12 -7 22 16 52
47 62 58 73 71 73 18 0 16 29 -1 36 -11 4 -6 14 20 36 19 16 34 36 34 44 0 8
8 14 18 14 12 0 17 9 18 31 1 17 7 35 15 40 9 6 10 9 2 9 -14 0 2 55 23 81 8
8 14 25 14 37 0 12 5 22 11 22 6 0 9 7 5 15 -3 8 -1 15 5 15 7 0 9 13 5 35 -4
21 -3 35 3 35 6 0 8 7 4 16 -5 13 -12 7 -31 -25 -13 -22 -29 -41 -36 -41 -20
-1 -60 -37 -47 -44 6 -4 11 -14 11 -22 0 -17 -30 -19 -30 -1 -1 6 -8 0 -16
-15 -19 -35 -30 -35 -39 0 -7 25 -8 25 -19 9 -21 -35 -56 -72 -56 -60 0 6 5
15 10 18 7 4 7 12 0 25 -12 22 0 33 24 24 9 -3 16 -2 16 4 0 19 -40 20 -64 1
-13 -10 -26 -15 -30 -12 -3 3 -6 -4 -6 -16 0 -18 -4 -22 -19 -18 -17 4 -18 2
-9 -25 12 -33 30 -32 38 3 6 22 7 21 13 -11 11 -57 -1 -112 -30 -142 -29 -31
-63 -37 -63 -12 0 9 -7 14 -17 12 -14 -2 -18 -12 -17 -41 1 -32 -1 -37 -16
-32 -14 5 -17 2 -13 -13 5 -19 -37 -72 -57 -72 -6 0 -10 -10 -10 -21 0 -20 -3
-21 -42 -14 -24 4 -53 7 -64 6 -12 0 -27 6 -34 14 -9 11 -23 14 -46 9 -24 -4
-42 -1 -59 10 -17 12 -25 13 -25 4 0 -9 -3 -9 -12 0 -13 13 -39 16 -37 5 1 -5
1 -15 0 -23 -1 -12 -5 -11 -16 5 -13 17 -19 18 -45 8 -28 -10 -31 -9 -36 13
-3 13 -10 21 -16 18 -5 -3 -8 0 -7 7 2 8 -3 24 -10 37 -7 13 -10 31 -6 40 3 9
-6 4 -21 -11 -32 -35 -41 -29 -19 13 20 38 8 80 -22 80 -17 -1 -17 -2 1 -15
11 -9 16 -20 12 -31 -5 -14 -9 -14 -23 -3 -9 8 -22 29 -30 47 -11 27 -17 31
-38 26 -15 -4 -25 -2 -25 5 0 6 4 11 8 11 11 0 -2 85 -21 134 l-14 38 -17 -23
c-16 -23 -16 -23 -16 -2 0 21 -17 33 -46 33 -9 0 -12 -4 -9 -10 3 -5 1 -10 -4
-10 -17 0 -13 27 6 34 12 5 13 10 5 18 -9 9 -18 5 -36 -15 -13 -14 -21 -29
-18 -32 4 -3 -2 -3 -12 1 -15 6 -17 3 -11 -14 5 -17 2 -22 -13 -22 -12 0 -22
9 -26 23 -5 17 -8 19 -15 9 -15 -24 -46 6 -76 72 -16 34 -29 63 -29 66 -4 17
-20 30 -38 30 -16 0 -19 4 -14 25 4 15 -1 37 -14 61 -12 20 -18 44 -15 55 4
11 2 19 -4 19 -6 0 -11 6 -11 14 0 9 -7 12 -20 9 -11 -3 -20 0 -20 6 0 6 7 11
15 11 8 0 15 6 15 14 0 10 -7 12 -22 8 -19 -5 -21 -2 -15 26 4 21 2 32 -8 36
-10 3 -15 19 -15 44 0 25 -7 45 -18 55 -19 17 -32 22 -32 11z m585 -774 c-3
-5 -10 -10 -16 -10 -5 0 -9 5 -9 10 0 6 7 10 16 10 8 0 12 -4 9 -10z m-349
-35 c13 -13 13 -15 1 -15 -8 0 -17 7 -21 15 -3 8 -3 15 0 15 3 0 12 -7 20 -15z
m49 -65 c3 -5 1 -10 -4 -10 -6 0 -11 5 -11 10 0 6 2 10 4 10 3 0 8 -4 11 -10z
m665 -130 c0 -5 -2 -10 -4 -10 -3 0 -8 5 -11 10 -3 6 -1 10 4 10 6 0 11 -4 11
-10z m-925 -40 c3 -5 1 -10 -4 -10 -6 0 -11 5 -11 10 0 6 2 10 4 10 3 0 8 -4
11 -10z m20 -50 c3 -5 1 -10 -4 -10 -6 0 -11 5 -11 10 0 6 2 10 4 10 3 0 8 -4
11 -10z m179 -191 c-8 -14 -24 -10 -24 6 0 9 6 12 15 9 8 -4 12 -10 9 -15z
m1006 11 c0 -5 -5 -10 -11 -10 -5 0 -7 5 -4 10 3 6 8 10 11 10 2 0 4 -4 4 -10z"/>
<path d="M3246 1353 c-4 -4 -17 -8 -29 -8 -17 0 -21 -5 -19 -22 4 -26 -1 -28
-28 -11 -16 10 -22 10 -32 -4 -12 -15 -21 -15 -123 2 -60 10 -114 15 -120 12
-5 -4 -13 -7 -17 -8 -5 -1 -11 -3 -15 -4 -22 -7 -40 -4 -55 8 -13 11 -32 12
-90 4 -40 -5 -98 -8 -127 -6 -30 1 -49 -1 -42 -5 10 -6 9 -10 -4 -15 -23 -9
-25 -8 -25 9 0 8 -6 15 -14 15 -8 0 -20 2 -28 5 -21 7 -55 -27 -63 -62 -6 -31
-5 -33 23 -33 30 0 92 -28 92 -42 0 -5 8 -8 18 -8 9 0 23 -9 30 -20 7 -11 22
-20 33 -20 12 0 23 -8 26 -19 3 -14 17 -21 49 -26 39 -5 44 -9 39 -26 -4 -13
-1 -21 12 -26 10 -4 24 -13 31 -20 7 -7 28 -13 46 -13 42 0 48 -7 30 -35 -14
-22 -14 -23 22 -30 26 -4 39 -3 45 7 7 11 11 10 19 -2 5 -8 10 -10 11 -5 1 6
2 15 4 20 1 6 3 16 3 23 1 7 16 18 32 23 17 6 30 18 30 26 0 10 6 13 16 9 10
-4 18 3 26 24 6 18 17 30 28 30 10 0 34 15 53 34 20 19 44 36 54 38 11 2 18
12 17 26 0 12 3 23 8 23 4 1 11 2 16 3 4 0 23 10 42 22 29 17 35 26 34 52 -1
46 -35 78 -58 55z m-418 -155 c9 -9 15 -9 24 0 7 7 17 12 23 12 5 0 3 -5 -5
-10 -11 -7 -4 -10 25 -9 47 0 75 -3 75 -8 0 -3 -5 -13 -10 -24 -11 -20 -50
-27 -50 -9 0 7 -6 7 -17 2 -10 -5 -36 -12 -58 -16 -38 -6 -39 -6 -20 10 19 16
19 16 -7 10 -24 -6 -26 -4 -23 21 2 16 4 29 4 31 2 7 29 0 39 -10z m162 -48
c0 -5 -5 -10 -11 -10 -5 0 -7 5 -4 10 3 6 8 10 11 10 2 0 4 -4 4 -10z"/>
<path d="M2418 1213 c7 -3 16 -2 19 1 4 3 -2 6 -13 5 -11 0 -14 -3 -6 -6z"/>
<path d="M3380 995 c0 -8 5 -15 10 -15 6 0 10 7 10 15 0 8 -4 15 -10 15 -5 0
-10 -7 -10 -15z"/>
<path d="M3560 844 c0 -8 5 -12 10 -9 6 3 10 10 10 16 0 5 -4 9 -10 9 -5 0
-10 -7 -10 -16z"/>
<path d="M2480 830 c0 -5 5 -10 11 -10 5 0 7 5 4 10 -3 6 -8 10 -11 10 -2 0
-4 -4 -4 -10z"/>
<path d="M3591 766 c-6 -7 -8 -26 -5 -43 6 -32 -12 -56 -26 -33 -5 8 -10 -3
-15 -29 -5 -29 -11 -41 -20 -37 -9 3 -14 -8 -17 -35 -2 -21 0 -39 5 -39 4 0 6
-17 3 -37 -3 -21 -5 -41 -5 -45 -1 -5 -12 -8 -26 -8 -15 0 -25 -6 -25 -14 0
-8 -9 -18 -20 -21 -11 -3 -20 -12 -20 -19 0 -7 -9 -25 -21 -40 -22 -28 -11
-36 15 -10 9 8 16 12 16 7 0 -4 5 0 11 9 5 10 19 23 31 29 l21 12 -21 -28
c-12 -15 -22 -41 -22 -56 0 -18 -5 -28 -12 -27 -8 2 -13 -7 -12 -24 2 -57 3
-60 23 -53 25 7 35 -10 33 -53 -4 -45 21 -38 29 9 4 19 7 25 8 14 1 -15 3 -17
10 -7 4 8 16 12 27 10 12 -2 20 4 22 17 5 27 21 45 39 45 10 0 12 -6 8 -20 -3
-11 -2 -20 3 -20 16 0 35 29 28 45 -3 9 1 18 9 21 17 7 20 40 5 49 -15 9 -12
17 16 50 22 26 23 31 10 41 -21 15 -20 24 2 24 16 1 16 1 0 14 -10 7 -14 17
-10 21 4 5 1 5 -5 1 -7 -4 -13 -19 -13 -32 0 -16 -5 -24 -12 -22 -7 3 -14 29
-16 63 -2 33 -9 63 -15 67 -8 5 -6 8 6 8 9 0 17 4 17 10 0 5 7 7 15 4 8 -4 15
-16 15 -28 0 -31 38 -62 61 -48 9 6 28 8 41 4 30 -9 78 -46 78 -61 0 -6 6 -11
14 -11 24 0 28 -17 9 -36 -16 -16 -16 -17 -1 -11 14 5 17 -1 16 -33 0 -21 -5
-41 -12 -43 -6 -3 -20 -22 -31 -43 -10 -22 -24 -46 -31 -54 -21 -26 -55 -92
-50 -97 2 -2 -9 -29 -25 -60 -16 -30 -29 -57 -29 -59 0 -2 243 -4 540 -4 l540
0 0 69 0 69 -102 40 c-57 22 -207 74 -334 115 -283 93 -332 120 -354 198 -6
21 -5 27 5 23 8 -3 -2 25 -23 65 -38 73 -51 83 -122 96 -19 4 -57 14 -83 22
-28 9 -64 13 -87 10 -31 -4 -40 -2 -40 9 0 21 -30 64 -45 64 -7 0 -18 -6 -24
-14z m64 -146 c3 -5 2 -10 -4 -10 -5 0 -13 5 -16 10 -3 6 -2 10 4 10 5 0 13
-4 16 -10z m-102 -50 c5 -18 3 -19 -11 -8 -9 7 -19 13 -21 15 -1 1 0 7 4 12 9
15 21 6 28 -19z m82 20 c-3 -5 -10 -10 -16 -10 -5 0 -9 5 -9 10 0 6 7 10 16
10 8 0 12 -4 9 -10z m10 -291 c10 -15 -1 -23 -20 -15 -9 3 -13 10 -10 16 8 13
22 13 30 -1z m-131 -44 c-6 -16 -24 -21 -24 -7 0 11 11 22 21 22 5 0 6 -7 3
-15z"/>
<path d="M2630 651 c0 -10 19 -25 25 -20 1 2 -3 10 -11 17 -8 7 -14 8 -14 3z"/>
<path d="M2670 640 c0 -5 5 -10 10 -10 6 0 10 5 10 10 0 6 -4 10 -10 10 -5 0
-10 -4 -10 -10z"/>
<path d="M2897 580 c-13 -15 -14 -20 -3 -20 7 0 16 9 19 20 3 11 4 20 3 20 -1
0 -9 -9 -19 -20z"/>
<path d="M2170 570 c8 -5 20 -10 25 -10 6 0 3 5 -5 10 -8 5 -19 10 -25 10 -5
0 -3 -5 5 -10z"/>
<path d="M3360 500 c0 -19 3 -21 12 -12 9 9 9 15 0 24 -9 9 -12 7 -12 -12z"/>
<path d="M3440 470 c0 -5 4 -10 9 -10 6 0 13 5 16 10 3 6 -1 10 -9 10 -9 0
-16 -4 -16 -10z"/>
<path d="M3376 414 c-4 -10 -1 -14 6 -12 15 5 23 28 10 28 -5 0 -13 -7 -16
-16z"/>
<path d="M3686 371 c-3 -5 1 -11 9 -15 8 -3 15 -1 15 4 0 13 -18 22 -24 11z"/>
<path d="M2348 353 c7 -3 16 -2 19 1 4 3 -2 6 -13 5 -11 0 -14 -3 -6 -6z"/>
<path d="M1288 314 c-43 -27 -47 -35 -18 -27 11 3 20 9 20 14 0 5 6 9 13 9 7
0 22 7 33 15 33 25 -7 16 -48 -11z"/>
<path d="M3290 320 c20 -13 43 -13 35 0 -3 6 -16 10 -28 10 -18 0 -19 -2 -7
-10z"/>
<path d="M2160 245 c-10 -13 -9 -15 9 -15 11 0 21 4 21 9 0 18 -18 21 -30 6z"/>
<path d="M1070 161 c-184 -106 -261 -156 -242 -159 12 -2 40 8 64 22 24 14 68
39 98 56 52 28 137 97 129 104 -2 2 -24 -9 -49 -23z"/>
<path d="M3436 157 c5 -13 1 -17 -20 -17 -20 0 -26 -5 -24 -17 2 -10 -4 -19
-14 -21 -11 -2 -18 3 -18 11 0 8 -7 18 -16 21 -24 9 -25 8 -19 -17 9 -32 -63
-96 -78 -69 -2 4 -2 1 -1 -6 2 -7 -3 -15 -11 -18 -28 -11 -15 -24 25 -24 31 0
38 3 34 15 -4 8 -1 15 5 15 6 0 11 -7 11 -15 0 -10 11 -15 35 -15 30 0 35 3
35 24 0 14 -4 28 -10 31 -15 9 -12 25 4 25 7 0 16 -10 20 -22 5 -21 7 -22 22
-7 12 13 14 21 5 37 -13 24 5 44 19 22 5 -7 7 0 6 18 -1 17 -5 34 -9 39 -5 4
-5 0 -1 -10z"/>
<path d="M3150 150 c0 -5 5 -10 10 -10 6 0 10 5 10 10 0 6 -4 10 -10 10 -5 0
-10 -4 -10 -10z"/>
<path d="M2997 23 c-14 -13 -6 -23 18 -23 16 0 25 6 25 15 0 15 -31 21 -43 8z"/>
</g>
</svg>
